<?xml version="1.0" encoding="UTF-8" standalone="no"?>
<!-- Created with Inkscape (http://www.inkscape.org/) -->

<svg
   xmlns:dc="http://purl.org/dc/elements/1.1/"
   xmlns:cc="http://creativecommons.org/ns#"
   xmlns:rdf="http://www.w3.org/1999/02/22-rdf-syntax-ns#"
   xmlns:svg="http://www.w3.org/2000/svg"
   xmlns="http://www.w3.org/2000/svg"
   xmlns:sodipodi="http://sodipodi.sourceforge.net/DTD/sodipodi-0.dtd"
   xmlns:inkscape="http://www.inkscape.org/namespaces/inkscape"
   width="100"
   height="100"
   viewBox="0 0 100 100"
   id="svg2"
   version="1.1"
   inkscape:version="0.91 r13725"
   sodipodi:docname="CardIcons.svg">
  <defs
     id="defs4" />
  <sodipodi:namedview
     id="base"
     pagecolor="#ffffff"
     bordercolor="#666666"
     borderopacity="1.0"
     inkscape:pageopacity="0.0"
     inkscape:pageshadow="2"
     inkscape:zoom="3.959798"
     inkscape:cx="121.26978"
     inkscape:cy="6.3745804"
     inkscape:document-units="px"
     inkscape:current-layer="layer15"
     showgrid="false"
     inkscape:snap-object-midpoints="true"
     inkscape:snap-page="true"
     inkscape:snap-bbox="true"
     inkscape:bbox-paths="true"
     inkscape:snap-bbox-edge-midpoints="true"
     inkscape:bbox-nodes="true"
     inkscape:snap-bbox-midpoints="true"
     inkscape:snap-intersection-paths="true"
     inkscape:object-nodes="true"
     inkscape:snap-midpoints="true"
     inkscape:snap-smooth-nodes="true"
     inkscape:snap-center="true"
     inkscape:snap-text-baseline="true"
     inkscape:snap-global="true"
     inkscape:window-width="1920"
     inkscape:window-height="1017"
     inkscape:window-x="1912"
     inkscape:window-y="-8"
     inkscape:window-maximized="1"
     inkscape:snap-nodes="true"
     inkscape:snap-others="true"
     inkscape:snap-to-guides="true"
     inkscape:object-paths="true"
     units="px"
     showguides="true" />
  <metadata
     id="metadata7">
    <rdf:RDF>
      <cc:Work
         rdf:about="">
        <dc:format>image/svg+xml</dc:format>
        <dc:type
           rdf:resource="http://purl.org/dc/dcmitype/StillImage" />
        <dc:title></dc:title>
      </cc:Work>
    </rdf:RDF>
  </metadata>
  <g
     inkscape:groupmode="layer"
     id="layer18"
     inkscape:label="BGND"
     style="display:none"
     sodipodi:insensitive="true">
    <rect
       style="fill:none;fill-opacity:1;stroke:#000000;stroke-width:2;stroke-linejoin:round;stroke-miterlimit:4;stroke-dasharray:none;stroke-dashoffset:0;stroke-opacity:1"
       id="rect5316"
       width="100"
       height="100"
       x="0"
       y="0" />
  </g>
  <g
     inkscape:groupmode="layer"
     id="layer10"
     inkscape:label="Verbal"
     style="display:none">
    <g
       id="g4971"
       style="stroke-width:3.61435223;stroke-miterlimit:4;stroke-dasharray:none"
       transform="translate(1.2550613,-151.31772)">
      <path
         sodipodi:nodetypes="cccc"
         inkscape:connector-curvature="0"
         id="path4878"
         d="m 22.703279,192.27396 1.097246,4.37584 c 16.962943,0 33.925885,0 50.888827,0 l 1.097246,-4.37584"
         style="fill:none;stroke:#000000;stroke-width:3.61435223;stroke-linecap:butt;stroke-linejoin:miter;stroke-miterlimit:4;stroke-dasharray:none;stroke-opacity:1" />
      <path
         style="fill:none;stroke:#000000;stroke-width:3.61435223;stroke-linecap:butt;stroke-linejoin:round;stroke-miterlimit:4;stroke-dasharray:none;stroke-opacity:1"
         d="m 87.911462,201.57909 c 0,0 -22.457756,17.99589 -38.666523,17.99589 -16.208767,0 -38.666523,-17.99589 -38.666523,-17.99589 0,0 9.197427,31.11516 38.666523,31.11516 29.469096,0 38.666523,-31.11516 38.666523,-31.11516 z"
         id="path4959"
         inkscape:connector-curvature="0"
         sodipodi:nodetypes="cscsc" />
      <path
         sodipodi:nodetypes="cccscccsc"
         inkscape:connector-curvature="0"
         id="path4961"
         d="m 55.874673,185.33473 c 16.488427,2.19325 21.740105,8.96627 32.036789,16.24436 -5.315975,-10.98693 -14.964048,-28.51873 -28.229624,-30.58971 -3.271973,-0.50145 -6.753262,3.72617 -10.436899,3.72617 -3.683637,0 -7.164925,-4.22762 -10.436899,-3.72617 -13.265576,2.07098 -22.913649,19.60278 -28.229624,30.58971 10.296684,-7.27809 15.548363,-14.05111 32.036789,-16.24436 2.365505,-0.20443 4.603639,0.80728 6.629734,0.80728 2.026095,0 4.264229,-1.01171 6.629734,-0.80728 z"
         style="fill:none;stroke:#000000;stroke-width:3.61435223;stroke-linecap:butt;stroke-linejoin:round;stroke-miterlimit:4;stroke-dasharray:none;stroke-opacity:1" />
      <path
         style="fill:none;stroke:#000000;stroke-width:3.61435223;stroke-linecap:butt;stroke-linejoin:miter;stroke-miterlimit:4;stroke-dasharray:none;stroke-opacity:1"
         d="m 73.110989,211.50522 c 0,0 -6.787372,-2.48741 -11.143843,-2.48741 -4.356472,0 -12.722207,2.99249 -12.722207,2.99249 0,0 -8.365735,-2.99249 -12.722206,-2.99249 -4.356471,0 -11.143843,2.48741 -11.143843,2.48741"
         id="path4965"
         inkscape:connector-curvature="0"
         sodipodi:nodetypes="cscsc" />
    </g>
  </g>
  <g
     inkscape:groupmode="layer"
     id="layer11"
     inkscape:label="Material"
     style="display:none">
    <g
       id="g4934"
       style="stroke-width:3.23519897;stroke-miterlimit:4;stroke-dasharray:none"
       transform="translate(0.49744835,-147.31785)">
      <path
         sodipodi:nodetypes="cc"
         inkscape:connector-curvature="0"
         id="path4929"
         d="m 55.355595,185.19591 c 7.55273,10.59318 6.463217,17.78185 5.282074,24.93441"
         style="fill:none;stroke:#000000;stroke-width:3.23519897;stroke-linecap:butt;stroke-linejoin:miter;stroke-miterlimit:4;stroke-dasharray:none;stroke-opacity:1" />
      <path
         sodipodi:nodetypes="cscsccssscc"
         inkscape:connector-curvature="0"
         id="path4921"
         d="m 69.645411,181.36474 c 5.027046,5.02705 8.136338,11.97185 8.136337,19.64286 -2e-6,15.34202 -12.437172,27.77919 -27.779196,27.77919 -15.342024,0 -27.779194,-12.43717 -27.779196,-27.77919 -10e-7,-7.67101 3.109291,-14.61581 8.136337,-19.64286 l -7.126184,-10.53545 c 0,0 8.731708,-4.09655 13.384522,-3.97747 4.73092,0.12108 8.652052,4.73508 13.384521,4.73508 4.732469,0 8.653601,-4.614 13.384521,-4.73508 4.652814,-0.11908 13.384522,3.97747 13.384522,3.97747 z"
         style="fill:none;fill-opacity:0.23668638;stroke:#000000;stroke-width:3.23519897;stroke-linejoin:round;stroke-miterlimit:4;stroke-dasharray:none;stroke-opacity:1" />
      <path
         sodipodi:nodetypes="csc"
         inkscape:connector-curvature="0"
         id="path4923"
         d="m 30.359693,181.36474 c 0,0 12.838373,4.04061 19.642859,4.04061 6.804486,0 19.642859,-4.04061 19.642859,-4.04061"
         style="fill:none;stroke:#000000;stroke-width:3.23519897;stroke-linecap:butt;stroke-linejoin:miter;stroke-miterlimit:4;stroke-dasharray:none;stroke-opacity:1" />
      <path
         sodipodi:nodetypes="cc"
         inkscape:connector-curvature="0"
         id="path4927"
         d="m 58.079482,185.9499 c 6.876662,5.66732 10.129244,11.71611 10.610891,18.05659"
         style="fill:none;stroke:#000000;stroke-width:3.23519897;stroke-linecap:butt;stroke-linejoin:miter;stroke-miterlimit:4;stroke-dasharray:none;stroke-opacity:1" />
      <path
         inkscape:connector-curvature="0"
         id="path4931"
         d="m 59.473929,184.6783 a 3.1462085,2.9386982 0 0 1 -3.146208,2.93869 3.1462085,2.9386982 0 0 1 -3.146209,-2.93869 3.1462085,2.9386982 0 0 1 3.146209,-2.9387 3.1462085,2.9386982 0 0 1 3.146208,2.9387 z"
         style="fill:none;fill-opacity:0.23668638;stroke:#000000;stroke-width:3.23519897;stroke-linejoin:round;stroke-miterlimit:4;stroke-dasharray:none;stroke-opacity:1" />
    </g>
  </g>
  <g
     inkscape:groupmode="layer"
     id="layer12"
     inkscape:label="Somatic"
     style="display:none">
    <path
       style="fill:none;fill-opacity:0.23668638;stroke:#000000;stroke-width:4;stroke-linejoin:round;stroke-miterlimit:4;stroke-dasharray:none;stroke-opacity:1"
       d="M 30.950171,82.31525 16.35562,67.720698 c -2.172987,-2.173 -2.172999,-5.69612 0,-7.86911 2.17299,-2.17299 5.085174,-1.30134 7.86911,0 l 8.227819,3.84602 c 0,0 -0.538823,-7.80781 -0.973732,-10.68904 -1.403978,-9.3014 -7.355828,-25.01556 -7.355828,-25.01556 -0.892124,-2.88785 0.0668,-5.99581 2.838968,-7.2001 2.772214,-1.2043 6.179804,-0.007 7.200106,2.83896 l 8.641154,22.87183 -0.910074,-30.22436 c -0.09053,-3.00516 2.177758,-5.55272 5.180947,-5.69456 3.003171,-0.14184 5.336736,2.1958 5.694533,5.18096 l 3.487622,29.79335 5.504589,-22.53497 c 0.649576,-2.65924 2.76753,-4.67257 5.487273,-4.36179 2.719719,0.31081 4.672551,2.76754 4.361764,5.48728 l -2.059076,25.04878 7.539479,-13.45286 c 1.288939,-2.29987 3.86387,-3.52511 6.281532,-2.47358 2.417651,1.05153 3.576672,3.88695 2.473578,6.28153 0,0 -5.565106,11.15211 -6.921403,16.92029 -0.537886,2.28761 -0.729164,6.27212 -0.729164,6.27212 0,15.28462 -12.390651,27.675282 -27.675274,27.675282 -7.642312,0 -14.561141,-3.09768 -19.569372,-8.10592"
       id="path4908"
       inkscape:connector-curvature="0"
       sodipodi:nodetypes="cscscsscscscscscscscsscsc"
       inkscape:transform-center-x="4.3180481"
       inkscape:transform-center-y="-12.046699" />
  </g>
  <g
     inkscape:groupmode="layer"
     id="layer13"
     inkscape:label="Range"
     style="display:none">
    <g
       id="g5261"
       transform="translate(-0.30333205,-7.404313)">
      <path
         inkscape:connector-curvature="0"
         id="path5253"
         d="m 11.734694,67.857142 76.530612,0"
         style="fill:none;stroke:#000000;stroke-width:3;stroke-linecap:butt;stroke-linejoin:miter;stroke-miterlimit:4;stroke-dasharray:none;stroke-opacity:1" />
      <path
         sodipodi:nodetypes="ccc"
         inkscape:connector-curvature="0"
         id="path5255"
         d="m 77.768022,61.796532 10.497284,6.06061 -10.497284,6.06061"
         style="fill:none;stroke:#000000;stroke-width:3;stroke-linecap:butt;stroke-linejoin:miter;stroke-miterlimit:4;stroke-dasharray:none;stroke-opacity:1" />
      <path
         style="fill:none;fill-opacity:1;stroke:#000000;stroke-width:3;stroke-linejoin:round;stroke-miterlimit:4;stroke-dasharray:12, 6;stroke-dashoffset:0;stroke-opacity:1"
         d="M 11.734694,67.857142 C 18.571562,50.709479 35.652369,42.091836 50,42.091836 c 14.347631,0 31.428438,8.617643 38.265306,25.765306"
         id="path5259"
         inkscape:connector-curvature="0"
         sodipodi:nodetypes="ccc" />
    </g>
  </g>
  <g
     inkscape:groupmode="layer"
     id="layer14"
     inkscape:label="AOE"
     style="display:none" />
  <g
     inkscape:groupmode="layer"
     id="layer15"
     inkscape:label="Duration"
     style="display:inline">
    <g
       id="g5560">
      <path
         id="path5157"
         d="M 21.880896,53.015462 C 21.880895,37.209567 34.694105,24.396357 50.5,24.396357 l 0,26.093722 0,2.525383 z"
         style="fill:#bbbbbb;fill-opacity:1;stroke:none;stroke-width:3;stroke-linejoin:round;stroke-miterlimit:4;stroke-dasharray:none;stroke-opacity:1"
         inkscape:connector-curvature="0"
         sodipodi:nodetypes="ccccc" />
      <path
         style="fill:none;fill-opacity:0.23668638;stroke:#000000;stroke-width:2.79003167;stroke-linejoin:round;stroke-miterlimit:4;stroke-dasharray:none;stroke-opacity:1"
         d="M 87.070332,53.015462 A 36.570332,36.570332 0 0 1 50.500001,89.585793 36.570332,36.570332 0 0 1 13.929669,53.015462 36.570332,36.570332 0 0 1 50.500001,16.44513 36.570332,36.570332 0 0 1 87.070332,53.015462 Z"
         id="path5159"
         inkscape:connector-curvature="0" />
      <path
         style="fill:none;fill-opacity:0.23668638;stroke:#000000;stroke-width:3;stroke-linejoin:round;stroke-miterlimit:4;stroke-dasharray:none;stroke-opacity:1"
         d="M 79.119105,53.015462 A 28.619104,28.619104 0 0 1 50.500001,81.634566 28.619104,28.619104 0 0 1 21.880896,53.015462 28.619104,28.619104 0 0 1 50.500001,24.396357 28.619104,28.619104 0 0 1 79.119105,53.015462 Z"
         id="path5161"
         inkscape:connector-curvature="0" />
      <path
         style="fill:none;stroke:#000000;stroke-width:1px;stroke-linecap:butt;stroke-linejoin:miter;stroke-opacity:1"
         d="m 50.500001,24.396357 0,3.440198"
         id="path5165"
         inkscape:connector-curvature="0"
         sodipodi:nodetypes="cc" />
      <path
         sodipodi:nodetypes="cc"
         inkscape:connector-curvature="0"
         id="path5167"
         d="m 50.500001,78.194368 0,3.440198"
         style="fill:none;stroke:#000000;stroke-width:1px;stroke-linecap:butt;stroke-linejoin:miter;stroke-opacity:1" />
      <path
         sodipodi:nodetypes="cc"
         inkscape:connector-curvature="0"
         id="path5171"
         d="m 79.119106,53.015462 -3.440198,0"
         style="fill:none;stroke:#000000;stroke-width:1px;stroke-linecap:butt;stroke-linejoin:miter;stroke-opacity:1" />
      <path
         style="fill:none;stroke:#000000;stroke-width:1px;stroke-linecap:butt;stroke-linejoin:miter;stroke-opacity:1"
         d="m 25.321095,53.015462 -3.440198,0"
         id="path5173"
         inkscape:connector-curvature="0"
         sodipodi:nodetypes="cc" />
      <path
         style="fill:none;stroke:#000000;stroke-width:1px;stroke-linecap:butt;stroke-linejoin:miter;stroke-opacity:1"
         d="m 75.284872,38.705909 -2.979299,1.720099"
         id="path5177"
         inkscape:connector-curvature="0"
         sodipodi:nodetypes="cc" />
      <path
         sodipodi:nodetypes="cc"
         inkscape:connector-curvature="0"
         id="path5179"
         d="m 28.694428,65.604915 -2.979299,1.720099"
         style="fill:none;stroke:#000000;stroke-width:1px;stroke-linecap:butt;stroke-linejoin:miter;stroke-opacity:1" />
      <path
         sodipodi:nodetypes="cc"
         inkscape:connector-curvature="0"
         id="path5183"
         d="m 64.809552,28.230589 -1.720099,2.979299"
         style="fill:none;stroke:#000000;stroke-width:1px;stroke-linecap:butt;stroke-linejoin:miter;stroke-opacity:1" />
      <path
         style="fill:none;stroke:#000000;stroke-width:1px;stroke-linecap:butt;stroke-linejoin:miter;stroke-opacity:1"
         d="m 37.910547,74.821033 -1.720099,2.979299"
         id="path5185"
         inkscape:connector-curvature="0"
         sodipodi:nodetypes="cc" />
      <path
         style="fill:none;stroke:#000000;stroke-width:1px;stroke-linecap:butt;stroke-linejoin:miter;stroke-opacity:1"
         d="m 36.190448,28.230589 1.720099,2.979299"
         id="path5189"
         inkscape:connector-curvature="0"
         sodipodi:nodetypes="cc" />
      <path
         sodipodi:nodetypes="cc"
         inkscape:connector-curvature="0"
         id="path5191"
         d="m 63.089454,74.821033 1.720099,2.979299"
         style="fill:none;stroke:#000000;stroke-width:1px;stroke-linecap:butt;stroke-linejoin:miter;stroke-opacity:1" />
      <path
         sodipodi:nodetypes="cc"
         inkscape:connector-curvature="0"
         id="path5195"
         d="m 25.715128,38.705909 2.979299,1.720099"
         style="fill:none;stroke:#000000;stroke-width:1px;stroke-linecap:butt;stroke-linejoin:miter;stroke-opacity:1" />
      <path
         style="fill:none;stroke:#000000;stroke-width:1px;stroke-linecap:butt;stroke-linejoin:miter;stroke-opacity:1"
         d="m 72.305572,65.604914 2.979299,1.720099"
         id="path5197"
         inkscape:connector-curvature="0"
         sodipodi:nodetypes="cc" />
      <path
         style="fill:none;stroke:#000000;stroke-width:5;stroke-linecap:butt;stroke-linejoin:miter;stroke-miterlimit:4;stroke-dasharray:none;stroke-opacity:1"
         d="m 50.500001,16.44513 0,-4.92594"
         id="path5201"
         inkscape:connector-curvature="0"
         sodipodi:nodetypes="cc" />
      <path
         style="fill:none;stroke:#000000;stroke-width:3;stroke-linecap:butt;stroke-linejoin:miter;stroke-miterlimit:4;stroke-dasharray:none;stroke-opacity:1"
         d="m 46.252548,11.51919 8.494906,0"
         id="path5203"
         inkscape:connector-curvature="0" />
      <path
         sodipodi:nodetypes="cc"
         inkscape:connector-curvature="0"
         id="path5207"
         d="m 68.112736,21.732854 2.46297,-4.265989"
         style="fill:none;stroke:#000000;stroke-width:5;stroke-linecap:butt;stroke-linejoin:miter;stroke-miterlimit:4;stroke-dasharray:none;stroke-opacity:1" />
      <path
         inkscape:connector-curvature="0"
         id="path5209"
         d="m 66.897303,15.343138 7.356805,4.247453"
         style="fill:none;stroke:#000000;stroke-width:3;stroke-linecap:butt;stroke-linejoin:miter;stroke-miterlimit:4;stroke-dasharray:none;stroke-opacity:1" />
      <path
         style="fill:none;stroke:#000000;stroke-width:5;stroke-linecap:butt;stroke-linejoin:miter;stroke-miterlimit:4;stroke-dasharray:none;stroke-opacity:1"
         d="M 32.603064,20.672193 30.140093,16.406204"
         id="path5213"
         inkscape:connector-curvature="0"
         sodipodi:nodetypes="cc" />
      <path
         style="fill:none;stroke:#000000;stroke-width:3;stroke-linecap:butt;stroke-linejoin:miter;stroke-miterlimit:4;stroke-dasharray:none;stroke-opacity:1"
         d="m 26.461691,18.52993 7.356805,-4.247453"
         id="path5215"
         inkscape:connector-curvature="0" />
    </g>
  </g>
  <g
     inkscape:groupmode="layer"
     id="layer16"
     inkscape:label="Target"
     style="display:none">
    <g
       id="g5500">
      <path
         style="fill:none;fill-opacity:1;stroke:#000000;stroke-width:2;stroke-linejoin:round;stroke-miterlimit:4;stroke-dasharray:none;stroke-dashoffset:0;stroke-opacity:1"
         d="M 87.558117,50.751774 A 36.806343,36.806343 0 0 1 50.751774,87.558117 36.806343,36.806343 0 0 1 13.945431,50.751774 36.806343,36.806343 0 0 1 50.751774,13.945431 36.806343,36.806343 0 0 1 87.558117,50.751774 Z"
         id="path5266"
         inkscape:connector-curvature="0" />
      <path
         style="fill:none;fill-opacity:1;stroke:#000000;stroke-width:2;stroke-linejoin:round;stroke-miterlimit:4;stroke-dasharray:none;stroke-dashoffset:0;stroke-opacity:1"
         d="M 75.445156,50.751774 A 24.693382,24.693382 0 0 1 50.751774,75.445156 24.693382,24.693382 0 0 1 26.058392,50.751774 24.693382,24.693382 0 0 1 50.751774,26.058392 24.693382,24.693382 0 0 1 75.445156,50.751774 Z"
         id="circle5268"
         inkscape:connector-curvature="0" />
      <path
         style="fill:none;fill-opacity:1;stroke:#000000;stroke-width:2;stroke-linejoin:round;stroke-miterlimit:4;stroke-dasharray:none;stroke-dashoffset:0;stroke-opacity:1"
         d="M 62.363159,50.751774 A 11.611385,11.611385 0 0 1 50.751774,62.363159 11.611385,11.611385 0 0 1 39.140388,50.751774 11.611385,11.611385 0 0 1 50.751774,39.140389 11.611385,11.611385 0 0 1 62.363159,50.751774 Z"
         id="circle5270"
         inkscape:connector-curvature="0" />
      <path
         sodipodi:nodetypes="cc"
         inkscape:transform-center-x="24.123738"
         inkscape:connector-curvature="0"
         id="path5272"
         d="M 50.751774,50.751774 21.08499,21.08499"
         style="fill:none;stroke:#000000;stroke-width:2;stroke-linecap:butt;stroke-linejoin:miter;stroke-miterlimit:4;stroke-dasharray:none;stroke-opacity:1" />
      <path
         inkscape:connector-curvature="0"
         id="path5274"
         d="m 27.189299,27.189299 0,-8.643108"
         style="fill:none;stroke:#000000;stroke-width:2;stroke-linecap:butt;stroke-linejoin:miter;stroke-miterlimit:4;stroke-dasharray:none;stroke-opacity:1" />
      <path
         style="fill:none;stroke:#000000;stroke-width:2;stroke-linecap:butt;stroke-linejoin:miter;stroke-miterlimit:4;stroke-dasharray:none;stroke-opacity:1"
         d="m 21.08499,21.08499 0,-8.643107"
         id="path5276"
         inkscape:connector-curvature="0" />
      <path
         inkscape:connector-curvature="0"
         id="path5278"
         d="m 24.137144,24.137145 0,-8.643108"
         style="fill:none;stroke:#000000;stroke-width:2;stroke-linecap:butt;stroke-linejoin:miter;stroke-miterlimit:4;stroke-dasharray:none;stroke-opacity:1" />
      <path
         style="fill:none;stroke:#000000;stroke-width:2;stroke-linecap:butt;stroke-linejoin:miter;stroke-miterlimit:4;stroke-dasharray:none;stroke-opacity:1"
         d="m 27.189299,27.1893 -8.643107,0"
         id="path5293"
         inkscape:connector-curvature="0" />
      <path
         inkscape:connector-curvature="0"
         id="path5295"
         d="m 21.084991,21.084991 -8.643108,0"
         style="fill:none;stroke:#000000;stroke-width:2;stroke-linecap:butt;stroke-linejoin:miter;stroke-miterlimit:4;stroke-dasharray:none;stroke-opacity:1" />
      <path
         style="fill:none;stroke:#000000;stroke-width:2;stroke-linecap:butt;stroke-linejoin:miter;stroke-miterlimit:4;stroke-dasharray:none;stroke-opacity:1"
         d="m 24.137145,24.137145 -8.643108,0"
         id="path5297"
         inkscape:connector-curvature="0" />
    </g>
  </g>
  <g
     inkscape:groupmode="layer"
     id="layer17"
     inkscape:label="CastingTime"
     style="display:none">
    <g
       id="g5459">
      <path
         sodipodi:nodetypes="ccccc"
         inkscape:connector-curvature="0"
         style="fill:#bbbbbb;fill-opacity:1;stroke:none;stroke-width:3;stroke-linejoin:round;stroke-miterlimit:4;stroke-dasharray:none;stroke-opacity:1"
         d="M 79.119105,53.015462 C 79.119106,37.209567 66.305896,24.396357 50.500001,24.396357 l 0,26.093722 0,2.525383 z"
         id="path5059" />
      <path
         inkscape:connector-curvature="0"
         id="path4984"
         d="M 87.070332,53.015462 A 36.570332,36.570332 0 0 1 50.500001,89.585793 36.570332,36.570332 0 0 1 13.929669,53.015462 36.570332,36.570332 0 0 1 50.500001,16.44513 36.570332,36.570332 0 0 1 87.070332,53.015462 Z"
         style="fill:none;fill-opacity:0.23668638;stroke:#000000;stroke-width:3;stroke-linejoin:round;stroke-miterlimit:4;stroke-dasharray:none;stroke-opacity:1" />
      <path
         id="circle4986"
         d="M 79.119105,53.015462 A 28.619104,28.619104 0 0 1 50.500001,81.634566 28.619104,28.619104 0 0 1 21.880896,53.015462 28.619104,28.619104 0 0 1 50.500001,24.396357 28.619104,28.619104 0 0 1 79.119105,53.015462 Z"
         style="fill:none;fill-opacity:0.23668638;stroke:#000000;stroke-width:3;stroke-linejoin:round;stroke-miterlimit:4;stroke-dasharray:none;stroke-opacity:1"
         inkscape:connector-curvature="0" />
      <path
         sodipodi:nodetypes="cc"
         inkscape:connector-curvature="0"
         id="path4999"
         d="m 50.500001,24.396357 0,3.440198"
         style="fill:none;stroke:#000000;stroke-width:1px;stroke-linecap:butt;stroke-linejoin:miter;stroke-opacity:1" />
      <path
         style="fill:none;stroke:#000000;stroke-width:1px;stroke-linecap:butt;stroke-linejoin:miter;stroke-opacity:1"
         d="m 50.500001,78.194368 0,3.440198"
         id="path5001"
         inkscape:connector-curvature="0"
         sodipodi:nodetypes="cc" />
      <path
         style="fill:none;stroke:#000000;stroke-width:1px;stroke-linecap:butt;stroke-linejoin:miter;stroke-opacity:1"
         d="m 79.119106,53.015462 -3.440198,0"
         id="path5009"
         inkscape:connector-curvature="0"
         sodipodi:nodetypes="cc" />
      <path
         sodipodi:nodetypes="cc"
         inkscape:connector-curvature="0"
         id="path5011"
         d="m 25.321095,53.015462 -3.440198,0"
         style="fill:none;stroke:#000000;stroke-width:1px;stroke-linecap:butt;stroke-linejoin:miter;stroke-opacity:1" />
      <path
         sodipodi:nodetypes="cc"
         inkscape:connector-curvature="0"
         id="path5015"
         d="m 75.284872,38.705909 -2.979299,1.720099"
         style="fill:none;stroke:#000000;stroke-width:1px;stroke-linecap:butt;stroke-linejoin:miter;stroke-opacity:1" />
      <path
         style="fill:none;stroke:#000000;stroke-width:1px;stroke-linecap:butt;stroke-linejoin:miter;stroke-opacity:1"
         d="m 28.694428,65.604915 -2.979299,1.720099"
         id="path5017"
         inkscape:connector-curvature="0"
         sodipodi:nodetypes="cc" />
      <path
         style="fill:none;stroke:#000000;stroke-width:1px;stroke-linecap:butt;stroke-linejoin:miter;stroke-opacity:1"
         d="m 64.809552,28.230589 -1.720099,2.979299"
         id="path5021"
         inkscape:connector-curvature="0"
         sodipodi:nodetypes="cc" />
      <path
         sodipodi:nodetypes="cc"
         inkscape:connector-curvature="0"
         id="path5023"
         d="m 37.910547,74.821033 -1.720099,2.979299"
         style="fill:none;stroke:#000000;stroke-width:1px;stroke-linecap:butt;stroke-linejoin:miter;stroke-opacity:1" />
      <path
         sodipodi:nodetypes="cc"
         inkscape:connector-curvature="0"
         id="path5027"
         d="m 36.190448,28.230589 1.720099,2.979299"
         style="fill:none;stroke:#000000;stroke-width:1px;stroke-linecap:butt;stroke-linejoin:miter;stroke-opacity:1" />
      <path
         style="fill:none;stroke:#000000;stroke-width:1px;stroke-linecap:butt;stroke-linejoin:miter;stroke-opacity:1"
         d="m 63.089454,74.821033 1.720099,2.979299"
         id="path5029"
         inkscape:connector-curvature="0"
         sodipodi:nodetypes="cc" />
      <path
         style="fill:none;stroke:#000000;stroke-width:1px;stroke-linecap:butt;stroke-linejoin:miter;stroke-opacity:1"
         d="m 25.715128,38.705909 2.979299,1.720099"
         id="path5033"
         inkscape:connector-curvature="0"
         sodipodi:nodetypes="cc" />
      <path
         sodipodi:nodetypes="cc"
         inkscape:connector-curvature="0"
         id="path5035"
         d="m 72.305572,65.604914 2.979299,1.720099"
         style="fill:none;stroke:#000000;stroke-width:1px;stroke-linecap:butt;stroke-linejoin:miter;stroke-opacity:1" />
      <path
         sodipodi:nodetypes="cc"
         inkscape:connector-curvature="0"
         id="path5037"
         d="m 50.500001,16.44513 0,-4.92594"
         style="fill:none;stroke:#000000;stroke-width:5;stroke-linecap:butt;stroke-linejoin:miter;stroke-miterlimit:4;stroke-dasharray:none;stroke-opacity:1" />
      <path
         inkscape:connector-curvature="0"
         id="path5041"
         d="m 46.252548,11.51919 8.494906,0"
         style="fill:none;stroke:#000000;stroke-width:3;stroke-linecap:butt;stroke-linejoin:miter;stroke-miterlimit:4;stroke-dasharray:none;stroke-opacity:1" />
      <path
         style="fill:none;stroke:#000000;stroke-width:5;stroke-linecap:butt;stroke-linejoin:miter;stroke-miterlimit:4;stroke-dasharray:none;stroke-opacity:1"
         d="m 68.112736,21.732854 2.46297,-4.265989"
         id="path5049"
         inkscape:connector-curvature="0"
         sodipodi:nodetypes="cc" />
      <path
         style="fill:none;stroke:#000000;stroke-width:3;stroke-linecap:butt;stroke-linejoin:miter;stroke-miterlimit:4;stroke-dasharray:none;stroke-opacity:1"
         d="m 66.897303,15.343138 7.356805,4.247453"
         id="path5051"
         inkscape:connector-curvature="0" />
      <path
         sodipodi:nodetypes="cc"
         inkscape:connector-curvature="0"
         id="path5055"
         d="M 32.603064,20.672193 30.140093,16.406204"
         style="fill:none;stroke:#000000;stroke-width:5;stroke-linecap:butt;stroke-linejoin:miter;stroke-miterlimit:4;stroke-dasharray:none;stroke-opacity:1" />
      <path
         inkscape:connector-curvature="0"
         id="path5057"
         d="m 26.461691,18.52993 7.356805,-4.247453"
         style="fill:none;stroke:#000000;stroke-width:3;stroke-linecap:butt;stroke-linejoin:miter;stroke-miterlimit:4;stroke-dasharray:none;stroke-opacity:1" />
    </g>
  </g>
</svg>
