<?xml version="1.0" encoding="UTF-8" standalone="no"?>
<!-- Created with Inkscape (http://www.inkscape.org/) -->

<svg
   xmlns:dc="http://purl.org/dc/elements/1.1/"
   xmlns:cc="http://creativecommons.org/ns#"
   xmlns:rdf="http://www.w3.org/1999/02/22-rdf-syntax-ns#"
   xmlns:svg="http://www.w3.org/2000/svg"
   xmlns="http://www.w3.org/2000/svg"
   xmlns:sodipodi="http://sodipodi.sourceforge.net/DTD/sodipodi-0.dtd"
   xmlns:inkscape="http://www.inkscape.org/namespaces/inkscape"
   width="250"
   height="250"
   viewBox="0 0 250 250"
   id="svg2"
   version="1.1"
   inkscape:version="0.91 r13725"
   sodipodi:docname="MagicIcons.svg">
  <defs
     id="defs4" />
  <sodipodi:namedview
     id="base"
     pagecolor="#ffffff"
     bordercolor="#666666"
     borderopacity="1.0"
     inkscape:pageopacity="0.0"
     inkscape:pageshadow="2"
     inkscape:zoom="1.979899"
     inkscape:cx="58.556565"
     inkscape:cy="79.490569"
     inkscape:document-units="px"
     inkscape:current-layer="layer6"
     showgrid="false"
     inkscape:snap-object-midpoints="true"
     inkscape:snap-page="true"
     inkscape:snap-bbox="true"
     inkscape:bbox-paths="true"
     inkscape:snap-bbox-edge-midpoints="true"
     inkscape:bbox-nodes="true"
     inkscape:snap-bbox-midpoints="true"
     inkscape:snap-intersection-paths="true"
     inkscape:object-nodes="true"
     inkscape:snap-midpoints="true"
     inkscape:snap-smooth-nodes="true"
     inkscape:snap-center="true"
     inkscape:snap-text-baseline="true"
     inkscape:snap-global="true"
     inkscape:window-width="1920"
     inkscape:window-height="1017"
     inkscape:window-x="-8"
     inkscape:window-y="-8"
     inkscape:window-maximized="1"
     inkscape:snap-nodes="true"
     inkscape:snap-others="true"
     inkscape:snap-to-guides="true"
     inkscape:object-paths="true"
     units="px" />
  <metadata
     id="metadata7">
    <rdf:RDF>
      <cc:Work
         rdf:about="">
        <dc:format>image/svg+xml</dc:format>
        <dc:type
           rdf:resource="http://purl.org/dc/dcmitype/StillImage" />
        <dc:title></dc:title>
      </cc:Work>
    </rdf:RDF>
  </metadata>
  <g
     inkscape:groupmode="layer"
     id="layer2"
     inkscape:label="Divination"
     style="display:inline">
    <path
       inkscape:connector-curvature="0"
       id="path4154"
       d="m 224.35734,210.9015 -198.205969,0 99.102979,-171.65141 z"
       inkscape:transform-center-y="-27.620187"
       style="fill:none;fill-opacity:0.23668638;stroke:#000000;stroke-width:5;stroke-miterlimit:4;stroke-dasharray:none;stroke-opacity:1" />
    <path
       inkscape:connector-curvature="0"
       id="path4170"
       d="m 148.01533,153.6845 a 22.760969,22.760969 0 0 1 -22.76097,22.76097 22.760969,22.760969 0 0 1 -22.76096,-22.76097 22.760969,22.760969 0 0 1 22.76096,-22.76097 22.760969,22.760969 0 0 1 22.76097,22.76097 z"
       style="fill:none;fill-opacity:0.23668638;stroke:#000000;stroke-width:5;stroke-miterlimit:4;stroke-dasharray:none;stroke-opacity:1" />
    <path
       style="fill:none;stroke:#000000;stroke-width:5;stroke-linecap:butt;stroke-linejoin:miter;stroke-miterlimit:4;stroke-dasharray:none;stroke-opacity:1"
       d="m 191.34066,153.56894 c -15.1453,-11.63383 -40.85607,-23.13508 -65.91762,-23.13508 -25.06155,0 -50.772314,11.50125 -65.917611,23.13508 15.447372,11.63393 41.158101,23.13508 65.917611,23.13508 24.75952,0 50.47024,-11.50115 65.91762,-23.13508 z"
       id="path4172"
       inkscape:connector-curvature="0"
       sodipodi:nodetypes="cscsc" />
  </g>
  <g
     inkscape:groupmode="layer"
     id="layer3"
     inkscape:label="Abjuration"
     style="display:inline">
    <path
       sodipodi:nodetypes="csccc"
       inkscape:connector-curvature="0"
       id="path4194"
       d="M 28.416508,54.21723 C 59.539701,36.688696 92.604444,25.348038 125.25436,25.348038 c 32.64991,0 65.71466,11.340658 96.83786,28.869192 C 204.30875,166.22503 166.48831,199.1151 125.25436,224.2182 84.020414,199.1151 46.199976,166.22503 28.416508,54.21723 Z"
       inkscape:transform-center-y="27.218234"
       style="fill:none;fill-opacity:0.23668638;stroke:#000000;stroke-width:5;stroke-miterlimit:4;stroke-dasharray:none;stroke-opacity:1" />
    <path
       style="fill:none;fill-opacity:0.23668638;stroke:#000000;stroke-width:5;stroke-miterlimit:4;stroke-dasharray:none;stroke-opacity:1"
       inkscape:transform-center-y="22.023259"
       d="M 46.899346,64.359821 C 72.08225,50.176844 98.836134,41.000705 125.25436,41.000705 c 26.41822,0 53.17211,9.176139 78.35502,23.359116 C 189.22013,154.98937 158.61824,181.60193 125.25436,201.91376 91.890483,181.60193 61.288595,154.98937 46.899346,64.359821 Z"
       id="path4196"
       inkscape:connector-curvature="0"
       sodipodi:nodetypes="csccc" />
  </g>
  <g
     inkscape:groupmode="layer"
     id="layer4"
     inkscape:label="Enchantment"
     style="display:inline">
    <path
       style="fill:none;fill-opacity:0.23668638;stroke:#000000;stroke-width:5;stroke-miterlimit:4;stroke-dasharray:none;stroke-opacity:1"
       d="m 192.27272,134.09955 a 66.9104,66.9104 0 0 1 -66.9104,66.9104 66.9104,66.9104 0 0 1 -66.91039,-66.9104 66.9104,66.9104 0 0 1 66.91039,-66.910388 66.9104,66.9104 0 0 1 66.9104,66.910388 z"
       id="path4665"
       inkscape:connector-curvature="0" />
    <path
       style="fill:none;fill-opacity:0.23668638;stroke:#000000;stroke-width:5;stroke-miterlimit:4;stroke-dasharray:none;stroke-opacity:1"
       inkscape:transform-center-y="-1.8340382"
       d="m 208.14994,90.804804 5.20652,9.868196 10.99411,1.90226 -7.77631,8.00113 1.58822,11.04384 -10.01254,-4.92322 -10.01254,4.92322 1.58821,-11.04384 -7.7763,-8.00114 10.99411,-1.90225 z"
       id="path4669"
       inkscape:connector-curvature="0" />
    <path
       style="fill:none;fill-opacity:0.23668638;stroke:#000000;stroke-width:5;stroke-miterlimit:4;stroke-dasharray:none;stroke-opacity:1"
       inkscape:transform-center-y="-1.8340382"
       d="m 176.48664,188.25439 5.20652,9.86819 10.99411,1.90226 -7.77631,8.00114 1.58822,11.04385 -10.01254,-4.92322 -10.01254,4.92322 1.58821,-11.04385 -7.7763,-8.00114 10.99411,-1.90226 z"
       id="path4673"
       inkscape:connector-curvature="0" />
    <path
       style="fill:none;fill-opacity:0.23668638;stroke:#000000;stroke-width:5;stroke-miterlimit:4;stroke-dasharray:none;stroke-opacity:1"
       inkscape:transform-center-y="-1.8340382"
       d="m 74.022109,188.25439 5.206519,9.86819 10.994111,1.90226 -7.776303,8.00114 1.588212,11.04385 -10.01254,-4.92322 -10.012541,4.92322 1.588213,-11.04385 -7.776303,-8.00114 10.994109,-1.90226 z"
       id="path4675"
       inkscape:connector-curvature="0" />
    <path
       style="fill:none;fill-opacity:0.23668638;stroke:#000000;stroke-width:5;stroke-miterlimit:4;stroke-dasharray:none;stroke-opacity:1"
       inkscape:transform-center-y="-1.8340382"
       d="m 42.358803,90.804827 5.206521,9.868193 10.99411,1.90226 -7.776303,8.00113 1.588212,11.04384 -10.01254,-4.92322 -10.01254,4.92322 1.588213,-11.04384 -7.776303,-8.00113 10.994109,-1.90226 z"
       id="path4677"
       inkscape:connector-curvature="0" />
    <path
       style="fill:none;fill-opacity:0.23668638;stroke:#000000;stroke-width:5;stroke-miterlimit:4;stroke-dasharray:none;stroke-opacity:1"
       inkscape:transform-center-y="-1.8340382"
       d="m 125.25435,30.786406 5.20653,9.86819 10.99411,1.902258 -7.77631,8.001133 1.58821,11.04385 -10.01254,-4.923217 -10.01254,4.923217 1.58822,-11.04385 -7.77631,-8.001134 10.99411,-1.902257 z"
       id="path4679"
       inkscape:connector-curvature="0" />
  </g>
  <g
     inkscape:groupmode="layer"
     id="layer5"
     inkscape:label="Necromancy"
     style="display:inline">
    <path
       style="fill:none;fill-opacity:0.23668638;stroke:#000000;stroke-width:5;stroke-miterlimit:4;stroke-dasharray:none;stroke-opacity:1"
       d="M 224.5109,124.82573 A 99.256531,99.256531 0 0 1 125.25437,224.08226 99.256531,99.256531 0 0 1 25.997844,124.82573 99.256531,99.256531 0 0 1 125.25437,25.569212 99.256531,99.256531 0 0 1 224.5109,124.82573 Z"
       id="path4202"
       inkscape:connector-curvature="0" />
    <path
       style="fill:none;fill-opacity:0.23668638;stroke:#000000;stroke-width:5;stroke-miterlimit:4;stroke-dasharray:none;stroke-opacity:1"
       d="M 117.55638,96.850175 A 28.538849,28.538849 0 0 1 89.017533,125.38901 28.538849,28.538849 0 0 1 60.478686,96.850175 28.538849,28.538849 0 0 1 89.017533,68.311324 28.538849,28.538849 0 0 1 117.55638,96.850175 Z"
       id="path4204"
       inkscape:connector-curvature="0" />
    <path
       style="fill:none;fill-opacity:0.23668638;stroke:#000000;stroke-width:5;stroke-miterlimit:4;stroke-dasharray:none;stroke-opacity:1"
       d="M 190.03005,96.850175 A 28.538849,28.538849 0 0 1 161.4912,125.38901 28.538849,28.538849 0 0 1 132.95235,96.850175 28.538849,28.538849 0 0 1 161.4912,68.311324 28.538849,28.538849 0 0 1 190.03005,96.850175 Z"
       id="circle4212"
       inkscape:connector-curvature="0" />
    <path
       style="fill:none;stroke:#000000;stroke-width:5;stroke-linecap:butt;stroke-linejoin:miter;stroke-miterlimit:4;stroke-dasharray:none;stroke-opacity:1"
       d="m 67.050134,205.18515 0,-27.78782"
       id="path4206"
       inkscape:connector-curvature="0" />
    <path
       style="fill:none;stroke:#000000;stroke-width:5;stroke-linecap:butt;stroke-linejoin:miter;stroke-miterlimit:4;stroke-dasharray:none;stroke-opacity:1"
       d="m 105.85295,222.26148 0,-25.91027"
       id="path4208"
       inkscape:connector-curvature="0" />
    <path
       inkscape:connector-curvature="0"
       id="path4210"
       d="m 125.25435,224.01863 0,-25.91027"
       style="fill:none;stroke:#000000;stroke-width:5;stroke-linecap:butt;stroke-linejoin:miter;stroke-miterlimit:4;stroke-dasharray:none;stroke-opacity:1" />
    <path
       inkscape:connector-curvature="0"
       id="path4235"
       d="m 86.451554,216.01055 0,-25.91027"
       style="fill:none;stroke:#000000;stroke-width:5;stroke-linecap:butt;stroke-linejoin:miter;stroke-miterlimit:4;stroke-dasharray:none;stroke-opacity:1" />
    <path
       inkscape:connector-curvature="0"
       id="path4245"
       d="m 183.45858,205.18515 0,-27.78782"
       style="fill:none;stroke:#000000;stroke-width:5;stroke-linecap:butt;stroke-linejoin:miter;stroke-miterlimit:4;stroke-dasharray:none;stroke-opacity:1" />
    <path
       inkscape:connector-curvature="0"
       id="path4247"
       d="m 144.65576,222.26148 0,-25.91027"
       style="fill:none;stroke:#000000;stroke-width:5;stroke-linecap:butt;stroke-linejoin:miter;stroke-miterlimit:4;stroke-dasharray:none;stroke-opacity:1" />
    <path
       style="fill:none;stroke:#000000;stroke-width:5;stroke-linecap:butt;stroke-linejoin:miter;stroke-miterlimit:4;stroke-dasharray:none;stroke-opacity:1"
       d="m 164.05716,216.01055 0,-25.91027"
       id="path4251"
       inkscape:connector-curvature="0" />
    <path
       style="fill:none;stroke:#000000;stroke-width:5;stroke-linecap:butt;stroke-linejoin:miter;stroke-opacity:1;stroke-miterlimit:4;stroke-dasharray:none"
       d="m 126.44686,157.58626 16.39056,0 -16.39056,-27.3098 z"
       id="path4854"
       inkscape:connector-curvature="0" />
    <path
       inkscape:connector-curvature="0"
       id="path4856"
       d="m 124.06185,157.58626 -16.39056,0 16.39056,-27.3098 z"
       style="fill:none;stroke:#000000;stroke-width:5;stroke-linecap:butt;stroke-linejoin:miter;stroke-opacity:1;stroke-miterlimit:4;stroke-dasharray:none" />
  </g>
  <g
     inkscape:groupmode="layer"
     id="layer6"
     inkscape:label="Illusion"
     style="display:inline">
    <g
       id="g4862"
       style="stroke-width:5;stroke-miterlimit:4;stroke-dasharray:none">
      <path
         style="fill:none;fill-opacity:0.23668638;stroke:#000000;stroke-width:5;stroke-miterlimit:4;stroke-dasharray:none;stroke-opacity:1"
         d="M 181.64411,125.00001 A 56.644117,56.644117 0 0 1 125,181.64412 56.644117,56.644117 0 0 1 68.355887,125.00001 56.644117,56.644117 0 0 1 125,68.355882 56.644117,56.644117 0 0 1 181.64411,125.00001 Z"
         id="circle4271"
         inkscape:connector-curvature="0" />
      <path
         sodipodi:nodetypes="ccccc"
         inkscape:connector-curvature="0"
         id="path4287"
         d="m 125.25436,181.80358 c -37.793171,0 -80.509953,-25.2332 -99.404682,-56.97778 18.894729,-31.744575 61.611511,-56.977779 99.404682,-56.977779 37.79317,0 80.50996,25.233204 99.40469,56.977779 -18.89473,31.74458 -61.61152,56.97778 -99.40469,56.97778 z"
         style="fill:none;stroke:#000000;stroke-width:5;stroke-linecap:butt;stroke-linejoin:miter;stroke-miterlimit:4;stroke-dasharray:none;stroke-opacity:1" />
      <path
         style="fill:none;fill-opacity:0.23668638;stroke:#000000;stroke-width:5;stroke-miterlimit:4;stroke-dasharray:none;stroke-opacity:1"
         inkscape:transform-center-y="-2.5677073"
         d="m 125,82.999393 12.34366,25.011017 27.6013,4.01069 -19.97249,19.46837 4.71486,27.48976 L 125,146.00032 l -24.68735,12.97891 4.71486,-27.48976 -19.972464,-19.46837 27.601284,-4.01069 z"
         id="path4289"
         inkscape:connector-curvature="0" />
    </g>
  </g>
  <g
     inkscape:groupmode="layer"
     id="layer7"
     inkscape:label="Conjuration"
     style="display:inline">
    <path
       style="fill:none;stroke:#000000;stroke-width:5;stroke-linecap:butt;stroke-linejoin:miter;stroke-miterlimit:4;stroke-dasharray:none;stroke-opacity:1"
       d="M 182.87125,204.12864 125.25436,26.802096 67.63749,204.12864 218.48045,94.534815 l -186.452163,1e-5 z"
       id="path4158"
       inkscape:connector-curvature="0" />
    <path
       style="fill:none;fill-opacity:0.23668638;stroke:#000000;stroke-width:5;stroke-miterlimit:4;stroke-dasharray:none;stroke-opacity:1"
       d="M 224.75565,124.82579 A 99.501282,99.501282 0 0 1 125.25437,224.32707 99.501282,99.501282 0 0 1 25.753093,124.82579 99.501282,99.501282 0 0 1 125.25437,25.324515 99.501282,99.501282 0 0 1 224.75565,124.82579 Z"
       id="path4164"
       inkscape:connector-curvature="0" />
  </g>
  <g
     inkscape:groupmode="layer"
     id="layer8"
     inkscape:label="Evocation"
     style="display:inline">
    <path
       style="fill:none;fill-opacity:0.23668638;stroke:#000000;stroke-width:5;stroke-miterlimit:4;stroke-dasharray:none;stroke-opacity:1"
       d="m 204.31256,145.05145 c -3e-5,43.66261 -35.39561,79.05809 -79.05821,79.05809 -43.662582,0 -79.058157,-35.39548 -79.058192,-79.05809 -1.6e-5,-25.12113 7.402241,-33.23706 7.402241,-33.23706 2.557839,45.76574 27.142842,17.94368 16.416496,-27.939289 28.277415,38.901689 29.074472,-0.332206 24.694772,-38.809768 30.605103,55.541877 32.568053,9.337849 41.766543,-19.873134 -0.7433,30.688668 11.62749,117.390451 33.61015,45.661997 -5.44136,46.324244 4.78472,52.230484 14.87587,61.056294 6.81759,-0.3019 9.88185,-7.61322 6.80692,-22.03088 10.10969,13.28167 12.54343,17.19135 12.54341,35.17117 z"
       id="path4315"
       inkscape:connector-curvature="0"
       sodipodi:nodetypes="ssscccccccss" />
    <path
       sodipodi:nodetypes="ssscccccccss"
       inkscape:connector-curvature="0"
       id="path4318"
       d="m 86.023555,156.32008 c 1.6e-5,20.35287 16.499215,36.85185 36.851975,36.85185 20.35275,0 36.85195,-16.49898 36.85197,-36.85185 2e-5,-11.7099 -3.45046,-15.49303 -3.45046,-15.49303 -1.1923,21.33316 -12.65228,8.36421 -7.65233,-13.02357 -13.18116,18.13351 -13.5527,-0.15486 -11.51115,-18.09072 -14.26619,25.89027 -15.18119,4.35279 -19.46895,-9.26358 0.34647,14.30509 -5.42001,54.72009 -15.66696,21.2847 2.53643,21.59361 -2.230318,24.34665 -6.934197,28.46066 -3.177936,-0.13988 -4.606297,-3.54884 -3.172956,-10.26936 -4.712503,6.19116 -5.846959,8.01353 -5.846942,16.39457 z"
       style="fill:none;fill-opacity:0.23668638;stroke:#000000;stroke-width:5;stroke-miterlimit:4;stroke-dasharray:none;stroke-opacity:1" />
  </g>
  <g
     inkscape:groupmode="layer"
     id="layer9"
     inkscape:label="Transmutation"
     style="display:inline">
    <path
       style="fill:none;fill-opacity:0.23668638;stroke:#000000;stroke-width:5;stroke-miterlimit:4;stroke-dasharray:none;stroke-opacity:1"
       d="m 82.839787,201.23004 a 24.034315,24.034315 0 0 1 -33.989657,0 24.034315,24.034315 0 0 1 3e-6,-33.98965 24.034315,24.034315 0 0 1 33.98965,-1e-5 24.034315,24.034315 0 0 1 4e-6,33.98966 z"
       id="path4324"
       inkscape:connector-curvature="0" />
    <path
       style="fill:none;fill-opacity:0.23668638;stroke:#000000;stroke-width:5;stroke-miterlimit:4;stroke-dasharray:none;stroke-opacity:1"
       inkscape:transform-center-x="4.3164525"
       d="m 166.60078,48.879396 16.95663,5.243671 14.50637,-10.226886 0.25289,17.747076 14.20909,10.636088 -16.80038,5.724713 -5.72468,16.800347 -10.63609,-14.209088 -17.74708,-0.252886 10.22689,-14.506368 z"
       id="path4326"
       inkscape:connector-curvature="0" />
    <path
       sodipodi:nodetypes="ccc"
       inkscape:connector-curvature="0"
       id="path4331"
       d="m 210.17617,92.526689 c 12.30287,32.403551 5.40549,70.430891 -20.6923,96.528681 -26.0978,26.0978 -64.12514,32.99518 -96.528674,20.69231"
       style="fill:none;fill-opacity:0.23668638;stroke:#000000;stroke-width:5;stroke-miterlimit:4;stroke-dasharray:none;stroke-opacity:1" />
    <path
       style="fill:none;fill-opacity:0.23668638;stroke:#000000;stroke-width:5;stroke-miterlimit:4;stroke-dasharray:none;stroke-opacity:1"
       inkscape:transform-center-y="15.11905"
       d="m 204.77628,112.81058 5.39989,-20.283891 14.86658,14.818261"
       id="path4633"
       inkscape:connector-curvature="0"
       sodipodi:nodetypes="ccc"
       inkscape:transform-center-x="-17.50725" />
    <path
       style="fill:none;fill-opacity:0.23668638;stroke:#000000;stroke-width:5;stroke-miterlimit:4;stroke-dasharray:none;stroke-opacity:1"
       d="M 40.332496,157.12502 C 28.029631,124.72147 34.92701,86.69413 61.024804,60.596334 87.1226,34.498539 125.14993,27.60116 157.55348,39.904026"
       id="path4642"
       inkscape:connector-curvature="0"
       sodipodi:nodetypes="ccc" />
    <path
       inkscape:transform-center-x="-17.50725"
       sodipodi:nodetypes="ccc"
       inkscape:connector-curvature="0"
       id="path4644"
       d="M 45.732388,136.84113 40.332496,157.12502 25.465924,142.30677"
       inkscape:transform-center-y="15.11905"
       style="fill:none;fill-opacity:0.23668638;stroke:#000000;stroke-width:5;stroke-miterlimit:4;stroke-dasharray:none;stroke-opacity:1" />
  </g>
</svg>
